<svg id="Layer_1" data-name="Layer 1" xmlns="http://www.w3.org/2000/svg" width="672.78" height="503.45" viewBox="0 0 672.78 503.45">
  <title>agency</title>
  <g>
    <g>
      <path d="M69.09,55.49H82.74l8.62,35.18H92L112.2,55.49h13.65l-8.69,52.36H106.42l5.67-34.08h-.46L92.51,107.6H85.17l-7.87-34h-.44l-5.73,34.21H60.4Z" transform="translate(-59.81 -54.27)" style="fill: none;stroke: #231f20"/>
      <path d="M135.28,107.85H123.42l26.77-52.36h14.27l9.35,52.36H162l-1.89-11.94h-18.9Zm10.13-20.58H158.7l-3.12-19.81h-.4Z" transform="translate(-59.81 -54.27)" style="fill: none;stroke: #231f20"/>
      <path d="M229.45,73.82h-11A8.82,8.82,0,0,0,216,67a9.38,9.38,0,0,0-6.85-2.45,14.81,14.81,0,0,0-10.9,4.66q-4.62,4.67-6,13.11-1.32,8.14,1.49,12.3t8.51,4.14a15.17,15.17,0,0,0,8.36-2.33A12.44,12.44,0,0,0,215.7,90h11.12a26.6,26.6,0,0,1-13.45,16,25.31,25.31,0,0,1-11.74,2.65,22.22,22.22,0,0,1-12.24-3.27A18.17,18.17,0,0,1,182,95.86q-2.25-6.15-.84-14.85a34.46,34.46,0,0,1,5.51-14.29,27.66,27.66,0,0,1,10-8.9,27.07,27.07,0,0,1,12.63-3A24.61,24.61,0,0,1,220.18,57a15.93,15.93,0,0,1,7.07,6.5A18.64,18.64,0,0,1,229.45,73.82Z" transform="translate(-59.81 -54.27)" style="fill: none;stroke: #231f20"/>
      <path d="M231.8,107.85l8.7-52.36h11.07L248,77.1h22.47L274,55.49h11l-8.7,52.36h-11l3.58-21.63H246.45l-3.58,21.63Z" transform="translate(-59.81 -54.27)" style="fill: none;stroke: #231f20"/>
      <path d="M305.29,55.49l-8.7,52.36H285.52l8.69-52.36Z" transform="translate(-59.81 -54.27)" style="fill: none;stroke: #231f20"/>
      <path d="M358.21,55.49l-8.69,52.36H340L322.7,74.9h-.41l-5.5,32.95H305.72l8.69-52.36h9.72l17.18,32.93h.44l5.44-32.93Z" transform="translate(-59.81 -54.27)" style="fill: none;stroke: #231f20"/>
      <path d="M358.65,107.85l8.69-52.36h35.28l-1.53,9.13H376.88L374.83,77.1h22.4l-1.54,9.12H373.3l-2.05,12.51h24.32L394,107.85Z" transform="translate(-59.81 -54.27)" style="fill: none;stroke: #231f20"/>
      <path d="M428.47,107.85H416.61l26.77-52.36h14.26L467,107.85H455.14l-1.89-11.94h-18.9ZM438.6,87.27h13.29l-3.12-19.81h-.41Z" transform="translate(-59.81 -54.27)" style="fill: none;stroke: #231f20"/>
      <path d="M511.44,72.42a9,9,0,0,0-2.62-5.77q-2.22-2.09-6.48-2.08a14.89,14.89,0,0,0-7.51,2,17.31,17.31,0,0,0-5.94,5.81,24.11,24.11,0,0,0-3.35,9.25q-1.35,8.2,1.38,12.68t8.95,4.48a15,15,0,0,0,9.34-2.88,12.08,12.08,0,0,0,4.7-7.73H498.68l1.38-8.34H522l-1.12,6.6A26.15,26.15,0,0,1,516,98.29a24.9,24.9,0,0,1-9.3,7.62,27.89,27.89,0,0,1-12.18,2.66,22.33,22.33,0,0,1-12.39-3.26A17.61,17.61,0,0,1,475,96q-2.11-6-.76-14.31a34.73,34.73,0,0,1,5.65-14.52A29.19,29.19,0,0,1,490.24,58a27.56,27.56,0,0,1,13-3.2A22.69,22.69,0,0,1,513.59,57a16.6,16.6,0,0,1,6.84,6.23,16.37,16.37,0,0,1,2.26,9.17Z" transform="translate(-59.81 -54.27)" style="fill: none;stroke: #231f20"/>
      <path d="M525.6,107.85l8.7-52.36h35.28l-1.53,9.13H543.83l-2,12.48h22.4l-1.54,9.12h-22.4l-2,12.51h24.31L561,107.85Z" transform="translate(-59.81 -54.27)" style="fill: none;stroke: #231f20"/>
      <path d="M622.2,55.49l-8.69,52.36h-9.57L586.69,74.9h-.41l-5.5,32.95H569.71l8.69-52.36h9.72L605.3,88.42h.43l5.45-32.93Z" transform="translate(-59.81 -54.27)" style="fill: none;stroke: #231f20"/>
      <path d="M674.44,73.82H663.39A8.78,8.78,0,0,0,661,67a9.41,9.41,0,0,0-6.86-2.45,14.83,14.83,0,0,0-10.9,4.66q-4.62,4.67-6,13.11-1.34,8.14,1.48,12.3c1.88,2.76,4.71,4.14,8.52,4.14a15.17,15.17,0,0,0,8.36-2.33A12.42,12.42,0,0,0,660.68,90H671.8a26.51,26.51,0,0,1-13.45,16,25.27,25.27,0,0,1-11.73,2.65,22.25,22.25,0,0,1-12.25-3.27A18.17,18.17,0,0,1,627,95.86q-2.24-6.15-.83-14.85a34.32,34.32,0,0,1,5.51-14.29,27.55,27.55,0,0,1,10-8.9,27.07,27.07,0,0,1,12.63-3A24.69,24.69,0,0,1,665.17,57a16,16,0,0,1,7.07,6.5A18.72,18.72,0,0,1,674.44,73.82Z" transform="translate(-59.81 -54.27)" style="fill: none;stroke: #231f20"/>
      <path d="M682.41,55.49h12.4L703,78h.56L719.2,55.49h12.4L706.91,89.34l-3.1,18.51h-11l3.09-18.51Z" transform="translate(-59.81 -54.27)" style="fill: none;stroke: #231f20"/>
    </g>
    <g>
      <path d="M69.09,119.58H82.74l8.62,35.19H92l20.23-35.19h13.65L117.16,172H106.42l5.67-34.08h-.46L92.51,171.69H85.17L77.3,137.74h-.44L71.13,172H60.4Z" transform="translate(-59.81 -54.27)" style="fill: none;stroke: #231f20"/>
      <path d="M135.28,172H123.42l26.77-52.37h14.27L173.81,172H162L160.06,160h-18.9Zm10.13-20.58H158.7l-3.12-19.82h-.4Z" transform="translate(-59.81 -54.27)" style="fill: none;stroke: #231f20"/>
      <path d="M229.45,137.92h-11a8.8,8.8,0,0,0-2.41-6.8,9.35,9.35,0,0,0-6.85-2.46,14.82,14.82,0,0,0-10.9,4.67q-4.62,4.66-6,13.1-1.32,8.16,1.49,12.3t8.51,4.14a15.09,15.09,0,0,0,8.36-2.33,12.44,12.44,0,0,0,5.12-6.49h11.12a26,26,0,0,1-4.85,9.06,26.38,26.38,0,0,1-8.6,6.91,25.43,25.43,0,0,1-11.74,2.64,22.22,22.22,0,0,1-12.24-3.27A18.18,18.18,0,0,1,182,160q-2.25-6.17-.84-14.86a34.51,34.51,0,0,1,5.51-14.29,27.75,27.75,0,0,1,10-8.9,27.06,27.06,0,0,1,12.63-3,24.47,24.47,0,0,1,10.85,2.24,15.91,15.91,0,0,1,7.07,6.49A18.69,18.69,0,0,1,229.45,137.92Z" transform="translate(-59.81 -54.27)" style="fill: none;stroke: #231f20"/>
      <path d="M231.8,172l8.7-52.37h11.07L248,141.19h22.47L274,119.58h11L276.39,172h-11l3.58-21.63H246.45L242.87,172Z" transform="translate(-59.81 -54.27)" style="fill: none;stroke: #231f20"/>
      <path d="M305.29,119.58,296.59,172H285.52l8.69-52.37Z" transform="translate(-59.81 -54.27)" style="fill: none;stroke: #231f20"/>
      <path d="M358.21,119.58,349.52,172H340L322.7,139h-.41l-5.5,33H305.72l8.69-52.37h9.72l17.18,32.94h.44l5.44-32.94Z" transform="translate(-59.81 -54.27)" style="fill: none;stroke: #231f20"/>
      <path d="M358.65,172l8.69-52.37h35.28l-1.53,9.13H376.88l-2.05,12.48h22.4l-1.54,9.13H373.3l-2.05,12.5h24.32L394,172Z" transform="translate(-59.81 -54.27)" style="fill: none;stroke: #231f20"/>
      <path d="M428.47,172H416.61l26.77-52.37h14.26L467,172H455.14L453.25,160h-18.9Zm10.13-20.58h13.29l-3.12-19.82h-.41Z" transform="translate(-59.81 -54.27)" style="fill: none;stroke: #231f20"/>
      <path d="M511.44,136.51a9,9,0,0,0-2.62-5.77c-1.48-1.38-3.64-2.08-6.48-2.08a14.9,14.9,0,0,0-7.51,2,17.28,17.28,0,0,0-5.94,5.8,24.1,24.1,0,0,0-3.35,9.26q-1.35,8.21,1.38,12.68t8.95,4.47a15,15,0,0,0,9.34-2.88,12.05,12.05,0,0,0,4.7-7.73H498.68l1.38-8.33H522l-1.12,6.59A26.24,26.24,0,0,1,516,162.39a25,25,0,0,1-9.3,7.61,27.75,27.75,0,0,1-12.18,2.66,22.24,22.24,0,0,1-12.39-3.26,17.57,17.57,0,0,1-7.13-9.28q-2.11-6-.76-14.3a34.83,34.83,0,0,1,5.65-14.53,29.29,29.29,0,0,1,10.33-9.23,27.55,27.55,0,0,1,13-3.19,22.56,22.56,0,0,1,10.36,2.25,16.58,16.58,0,0,1,6.84,6.22,16.37,16.37,0,0,1,2.26,9.17Z" transform="translate(-59.81 -54.27)" style="fill: none;stroke: #231f20"/>
      <path d="M525.6,172l8.7-52.37h35.28l-1.53,9.13H543.83l-2,12.48h22.4l-1.54,9.13h-22.4l-2,12.5h24.31L561,172Z" transform="translate(-59.81 -54.27)" style="fill: none;stroke: #231f20"/>
      <path d="M622.2,119.58,613.51,172h-9.57l-17.25-33h-.41l-5.5,33H569.71l8.69-52.37h9.72l17.18,32.94h.43l5.45-32.94Z" transform="translate(-59.81 -54.27)" style="fill: none;stroke: #231f20"/>
      <path d="M674.44,137.92H663.39a8.76,8.76,0,0,0-2.4-6.8,9.37,9.37,0,0,0-6.86-2.46,14.84,14.84,0,0,0-10.9,4.67q-4.62,4.66-6,13.1-1.34,8.16,1.48,12.3c1.88,2.76,4.71,4.14,8.52,4.14a15.09,15.09,0,0,0,8.36-2.33,12.42,12.42,0,0,0,5.11-6.49H671.8a25.92,25.92,0,0,1-4.84,9.06,26.42,26.42,0,0,1-8.61,6.91,25.39,25.39,0,0,1-11.73,2.64,22.25,22.25,0,0,1-12.25-3.27A18.18,18.18,0,0,1,627,160q-2.24-6.17-.83-14.86a34.38,34.38,0,0,1,5.51-14.29,27.64,27.64,0,0,1,10-8.9,27.06,27.06,0,0,1,12.63-3,24.55,24.55,0,0,1,10.86,2.24,16,16,0,0,1,7.07,6.49A18.78,18.78,0,0,1,674.44,137.92Z" transform="translate(-59.81 -54.27)" style="fill: none;stroke: #231f20"/>
      <path d="M682.41,119.58h12.4L703,142.14h.56l15.62-22.56h12.4l-24.69,33.86L703.81,172h-11l3.09-18.51Z" transform="translate(-59.81 -54.27)" style="fill: none;stroke: #231f20"/>
    </g>
    <g>
      <path d="M69.09,183.68H82.74l8.62,35.18H92l20.23-35.18h13.65L117.16,236H106.42L112.09,202h-.46L92.51,235.79H85.17l-7.87-34h-.44L71.13,236H60.4Z" transform="translate(-59.81 -54.27)" style="fill: none;stroke: #231f20"/>
      <path d="M135.28,236H123.42l26.77-52.36h14.27L173.81,236H162l-1.89-11.94h-18.9Zm10.13-20.58H158.7l-3.12-19.82h-.4Z" transform="translate(-59.81 -54.27)" style="fill: none;stroke: #231f20"/>
      <path d="M229.45,202h-11a8.81,8.81,0,0,0-2.41-6.8,9.35,9.35,0,0,0-6.85-2.46,14.82,14.82,0,0,0-10.9,4.67q-4.62,4.67-6,13.1-1.32,8.16,1.49,12.3t8.51,4.14a15.17,15.17,0,0,0,8.36-2.32,12.46,12.46,0,0,0,5.12-6.5h11.12a26.58,26.58,0,0,1-13.45,16,25.31,25.31,0,0,1-11.74,2.65,22.14,22.14,0,0,1-12.24-3.28,18.14,18.14,0,0,1-7.35-9.43q-2.25-6.17-.84-14.86a34.57,34.57,0,0,1,5.51-14.29,27.75,27.75,0,0,1,10-8.9,27.18,27.18,0,0,1,12.63-3,24.61,24.61,0,0,1,10.85,2.24,16,16,0,0,1,7.07,6.49A18.69,18.69,0,0,1,229.45,202Z" transform="translate(-59.81 -54.27)" style="fill: none;stroke: #231f20"/>
      <path d="M231.8,236l8.7-52.36h11.07L248,205.28h22.47l3.58-21.6h11L276.39,236h-11l3.58-21.63H246.45L242.87,236Z" transform="translate(-59.81 -54.27)" style="fill: none;stroke: #231f20"/>
      <path d="M305.29,183.68,296.59,236H285.52l8.69-52.36Z" transform="translate(-59.81 -54.27)" style="fill: none;stroke: #231f20"/>
      <path d="M358.21,183.68,349.52,236H340l-17.26-33h-.41l-5.5,33H305.72l8.69-52.36h9.72l17.18,32.93h.44l5.44-32.93Z" transform="translate(-59.81 -54.27)" style="fill: none;stroke: #231f20"/>
      <path d="M358.65,236l8.69-52.36h35.28l-1.53,9.13H376.88l-2.05,12.47h22.4l-1.54,9.13H373.3l-2.05,12.5h24.32L394,236Z" transform="translate(-59.81 -54.27)" style="fill: none;stroke: #231f20"/>
      <path d="M428.47,236H416.61l26.77-52.36h14.26L467,236H455.14l-1.89-11.94h-18.9Zm10.13-20.58h13.29l-3.12-19.82h-.41Z" transform="translate(-59.81 -54.27)" style="fill: none;stroke: #231f20"/>
      <path d="M511.44,200.6a9,9,0,0,0-2.62-5.76q-2.22-2.09-6.48-2.09a14.9,14.9,0,0,0-7.51,2,17.28,17.28,0,0,0-5.94,5.8,24.16,24.16,0,0,0-3.35,9.26q-1.35,8.2,1.38,12.68t8.95,4.47a15,15,0,0,0,9.34-2.87,12.1,12.1,0,0,0,4.7-7.74H498.68l1.38-8.33H522l-1.12,6.6A26.2,26.2,0,0,1,516,226.48a24.9,24.9,0,0,1-9.3,7.62,27.89,27.89,0,0,1-12.18,2.66,22.33,22.33,0,0,1-12.39-3.26,17.65,17.65,0,0,1-7.13-9.28q-2.11-6-.76-14.31a34.73,34.73,0,0,1,5.65-14.52,29.19,29.19,0,0,1,10.33-9.23,27.56,27.56,0,0,1,13-3.2,22.56,22.56,0,0,1,10.36,2.25,16.6,16.6,0,0,1,6.84,6.23,16.34,16.34,0,0,1,2.26,9.16Z" transform="translate(-59.81 -54.27)" style="fill: none;stroke: #231f20"/>
      <path d="M525.6,236l8.7-52.36h35.28l-1.53,9.13H543.83l-2,12.47h22.4l-1.54,9.13h-22.4l-2,12.5h24.31L561,236Z" transform="translate(-59.81 -54.27)" style="fill: none;stroke: #231f20"/>
      <path d="M622.2,183.68,613.51,236h-9.57l-17.25-33h-.41l-5.5,33H569.71l8.69-52.36h9.72l17.18,32.93h.43l5.45-32.93Z" transform="translate(-59.81 -54.27)" style="fill: none;stroke: #231f20"/>
      <path d="M674.44,202H663.39a8.77,8.77,0,0,0-2.4-6.8,9.37,9.37,0,0,0-6.86-2.46,14.84,14.84,0,0,0-10.9,4.67q-4.62,4.67-6,13.1-1.34,8.16,1.48,12.3c1.88,2.76,4.71,4.14,8.52,4.14a15.17,15.17,0,0,0,8.36-2.32,12.45,12.45,0,0,0,5.11-6.5H671.8a26.49,26.49,0,0,1-13.45,16,25.27,25.27,0,0,1-11.73,2.65,22.17,22.17,0,0,1-12.25-3.28,18.14,18.14,0,0,1-7.35-9.43q-2.24-6.17-.83-14.86a34.43,34.43,0,0,1,5.51-14.29,27.64,27.64,0,0,1,10-8.9,27.18,27.18,0,0,1,12.63-3,24.69,24.69,0,0,1,10.86,2.24,16.08,16.08,0,0,1,7.07,6.49A18.78,18.78,0,0,1,674.44,202Z" transform="translate(-59.81 -54.27)" style="fill: none;stroke: #231f20"/>
      <path d="M682.41,183.68h12.4L703,206.23h.56l15.62-22.55h12.4l-24.69,33.85L703.81,236h-11l3.09-18.51Z" transform="translate(-59.81 -54.27)" style="fill: none;stroke: #231f20"/>
    </g>
    <g>
      <path d="M69.09,247.77H82.74L91.36,283H92l20.23-35.18h13.65l-8.69,52.37H106.42l5.67-34.09h-.46L92.51,299.88H85.17l-7.87-34h-.44l-5.73,34.22H60.4Z" transform="translate(-59.81 -54.27)" style="fill: none;stroke: #231f20"/>
      <path d="M135.28,300.14H123.42l26.77-52.37h14.27l9.35,52.37H162l-1.89-11.95h-18.9Zm10.13-20.59H158.7l-3.12-19.81h-.4Z" transform="translate(-59.81 -54.27)" style="fill: none;stroke: #231f20"/>
      <path d="M229.45,266.1h-11a8.82,8.82,0,0,0-2.41-6.8,9.38,9.38,0,0,0-6.85-2.45,14.81,14.81,0,0,0-10.9,4.66q-4.62,4.68-6,13.11-1.32,8.16,1.49,12.3t8.51,4.14a15.17,15.17,0,0,0,8.36-2.33,12.44,12.44,0,0,0,5.12-6.49h11.12a26.6,26.6,0,0,1-13.45,16,25.31,25.31,0,0,1-11.74,2.65,22.22,22.22,0,0,1-12.24-3.27,18.17,18.17,0,0,1-7.35-9.44q-2.25-6.15-.84-14.85A34.46,34.46,0,0,1,186.71,259a27.66,27.66,0,0,1,10-8.9,27.06,27.06,0,0,1,12.63-3,24.61,24.61,0,0,1,10.85,2.23,15.93,15.93,0,0,1,7.07,6.5A18.66,18.66,0,0,1,229.45,266.1Z" transform="translate(-59.81 -54.27)" style="fill: none;stroke: #231f20"/>
      <path d="M231.8,300.14l8.7-52.37h11.07L248,269.38h22.47L274,247.77h11l-8.7,52.37h-11l3.58-21.64H246.45l-3.58,21.64Z" transform="translate(-59.81 -54.27)" style="fill: none;stroke: #231f20"/>
      <path d="M305.29,247.77l-8.7,52.37H285.52l8.69-52.37Z" transform="translate(-59.81 -54.27)" style="fill: none;stroke: #231f20"/>
      <path d="M358.21,247.77l-8.69,52.37H340l-17.26-33h-.41l-5.5,33H305.72l8.69-52.37h9.72l17.18,32.93h.44l5.44-32.93Z" transform="translate(-59.81 -54.27)" style="fill: none;stroke: #231f20"/>
      <path d="M358.65,300.14l8.69-52.37h35.28l-1.53,9.13H376.88l-2.05,12.48h22.4l-1.54,9.12H373.3L371.25,291h24.32L394,300.14Z" transform="translate(-59.81 -54.27)" style="fill: none;stroke: #231f20"/>
      <path d="M428.47,300.14H416.61l26.77-52.37h14.26L467,300.14H455.14l-1.89-11.95h-18.9Zm10.13-20.59h13.29l-3.12-19.81h-.41Z" transform="translate(-59.81 -54.27)" style="fill: none;stroke: #231f20"/>
      <path d="M511.44,264.7a9,9,0,0,0-2.62-5.77q-2.22-2.08-6.48-2.08a14.89,14.89,0,0,0-7.51,2,17.31,17.31,0,0,0-5.94,5.81,24.11,24.11,0,0,0-3.35,9.25q-1.35,8.21,1.38,12.68t8.95,4.48a15,15,0,0,0,9.34-2.88,12.08,12.08,0,0,0,4.7-7.73H498.68l1.38-8.34H522l-1.12,6.6A26.15,26.15,0,0,1,516,290.57a24.9,24.9,0,0,1-9.3,7.62,27.89,27.89,0,0,1-12.18,2.66,22.33,22.33,0,0,1-12.39-3.26,17.61,17.61,0,0,1-7.13-9.28q-2.11-6-.76-14.31a34.78,34.78,0,0,1,5.65-14.52,29.19,29.19,0,0,1,10.33-9.23,27.55,27.55,0,0,1,13-3.19,22.56,22.56,0,0,1,10.36,2.25,16.58,16.58,0,0,1,6.84,6.22,16.37,16.37,0,0,1,2.26,9.17Z" transform="translate(-59.81 -54.27)" style="fill: none;stroke: #231f20"/>
      <path d="M525.6,300.14l8.7-52.37h35.28l-1.53,9.13H543.83l-2,12.48h22.4l-1.54,9.12h-22.4l-2,12.51h24.31L561,300.14Z" transform="translate(-59.81 -54.27)" style="fill: none;stroke: #231f20"/>
      <path d="M622.2,247.77l-8.69,52.37h-9.57l-17.25-33h-.41l-5.5,33H569.71l8.69-52.37h9.72L605.3,280.7h.43l5.45-32.93Z" transform="translate(-59.81 -54.27)" style="fill: none;stroke: #231f20"/>
      <path d="M674.44,266.1H663.39a8.78,8.78,0,0,0-2.4-6.8,9.41,9.41,0,0,0-6.86-2.45,14.83,14.83,0,0,0-10.9,4.66q-4.62,4.68-6,13.11-1.34,8.16,1.48,12.3c1.88,2.76,4.71,4.14,8.52,4.14a15.17,15.17,0,0,0,8.36-2.33,12.42,12.42,0,0,0,5.11-6.49H671.8a26.51,26.51,0,0,1-13.45,16,25.27,25.27,0,0,1-11.73,2.65,22.25,22.25,0,0,1-12.25-3.27,18.17,18.17,0,0,1-7.35-9.44q-2.24-6.15-.83-14.85A34.32,34.32,0,0,1,631.7,259a27.55,27.55,0,0,1,10-8.9,27.06,27.06,0,0,1,12.63-3,24.69,24.69,0,0,1,10.86,2.23,16,16,0,0,1,7.07,6.5A18.74,18.74,0,0,1,674.44,266.1Z" transform="translate(-59.81 -54.27)" style="fill: none;stroke: #231f20"/>
      <path d="M682.41,247.77h12.4L703,270.32h.56l15.62-22.55h12.4l-24.69,33.85-3.1,18.52h-11l3.09-18.52Z" transform="translate(-59.81 -54.27)" style="fill: none;stroke: #231f20"/>
    </g>
    <g>
      <path d="M69.09,311.86H82.74l8.62,35.19H92l20.23-35.19h13.65l-8.69,52.37H106.42l5.67-34.08h-.46L92.51,364H85.17L77.3,330h-.44l-5.73,34.21H60.4Z" transform="translate(-59.81 -54.27)" style="fill: none;stroke: #231f20"/>
      <path d="M135.28,364.23H123.42l26.77-52.37h14.27l9.35,52.37H162l-1.89-11.94h-18.9Zm10.13-20.58H158.7l-3.12-19.82h-.4Z" transform="translate(-59.81 -54.27)" style="fill: none;stroke: #231f20"/>
      <path d="M229.45,330.2h-11a8.8,8.8,0,0,0-2.41-6.8,9.35,9.35,0,0,0-6.85-2.46,14.82,14.82,0,0,0-10.9,4.67q-4.62,4.67-6,13.1-1.32,8.16,1.49,12.3t8.51,4.14a15.17,15.17,0,0,0,8.36-2.32,12.5,12.5,0,0,0,5.12-6.5h11.12a26,26,0,0,1-4.85,9.06,26.38,26.38,0,0,1-8.6,6.91,25.43,25.43,0,0,1-11.74,2.64,22.22,22.22,0,0,1-12.24-3.27,18.14,18.14,0,0,1-7.35-9.43q-2.25-6.17-.84-14.86a34.51,34.51,0,0,1,5.51-14.29,27.75,27.75,0,0,1,10-8.9,27.06,27.06,0,0,1,12.63-3,24.61,24.61,0,0,1,10.85,2.24,15.91,15.91,0,0,1,7.07,6.49A18.69,18.69,0,0,1,229.45,330.2Z" transform="translate(-59.81 -54.27)" style="fill: none;stroke: #231f20"/>
      <path d="M231.8,364.23l8.7-52.37h11.07L248,333.47h22.47L274,311.86h11l-8.7,52.37h-11l3.58-21.63H246.45l-3.58,21.63Z" transform="translate(-59.81 -54.27)" style="fill: none;stroke: #231f20"/>
      <path d="M305.29,311.86l-8.7,52.37H285.52l8.69-52.37Z" transform="translate(-59.81 -54.27)" style="fill: none;stroke: #231f20"/>
      <path d="M358.21,311.86l-8.69,52.37H340l-17.26-33h-.41l-5.5,33H305.72l8.69-52.37h9.72l17.18,32.94h.44l5.44-32.94Z" transform="translate(-59.81 -54.27)" style="fill: none;stroke: #231f20"/>
      <path d="M358.65,364.23l8.69-52.37h35.28L401.09,321H376.88l-2.05,12.48h22.4l-1.54,9.13H373.3l-2.05,12.5h24.32L394,364.23Z" transform="translate(-59.81 -54.27)" style="fill: none;stroke: #231f20"/>
      <path d="M428.47,364.23H416.61l26.77-52.37h14.26L467,364.23H455.14l-1.89-11.94h-18.9Zm10.13-20.58h13.29l-3.12-19.82h-.41Z" transform="translate(-59.81 -54.27)" style="fill: none;stroke: #231f20"/>
      <path d="M511.44,328.79a9,9,0,0,0-2.62-5.76q-2.22-2.08-6.48-2.09a14.9,14.9,0,0,0-7.51,2,17.28,17.28,0,0,0-5.94,5.8,24.1,24.1,0,0,0-3.35,9.26q-1.35,8.21,1.38,12.68t8.95,4.47a15.05,15.05,0,0,0,9.34-2.87,12.1,12.1,0,0,0,4.7-7.74H498.68l1.38-8.33H522l-1.12,6.59A26.24,26.24,0,0,1,516,354.67a25.09,25.09,0,0,1-9.3,7.62,27.88,27.88,0,0,1-12.18,2.65,22.24,22.24,0,0,1-12.39-3.26A17.57,17.57,0,0,1,475,352.4q-2.11-6-.76-14.3a34.73,34.73,0,0,1,5.65-14.52,29.1,29.1,0,0,1,10.33-9.23,27.45,27.45,0,0,1,13-3.2,22.56,22.56,0,0,1,10.36,2.25,16.54,16.54,0,0,1,6.84,6.23,16.34,16.34,0,0,1,2.26,9.16Z" transform="translate(-59.81 -54.27)" style="fill: none;stroke: #231f20"/>
      <path d="M525.6,364.23l8.7-52.37h35.28L568.05,321H543.83l-2,12.48h22.4l-1.54,9.13h-22.4l-2,12.5h24.31L561,364.23Z" transform="translate(-59.81 -54.27)" style="fill: none;stroke: #231f20"/>
      <path d="M622.2,311.86l-8.69,52.37h-9.57l-17.25-33h-.41l-5.5,33H569.71l8.69-52.37h9.72L605.3,344.8h.43l5.45-32.94Z" transform="translate(-59.81 -54.27)" style="fill: none;stroke: #231f20"/>
      <path d="M674.44,330.2H663.39a8.76,8.76,0,0,0-2.4-6.8,9.37,9.37,0,0,0-6.86-2.46,14.84,14.84,0,0,0-10.9,4.67q-4.62,4.67-6,13.1-1.34,8.16,1.48,12.3c1.88,2.76,4.71,4.14,8.52,4.14a15.17,15.17,0,0,0,8.36-2.32,12.48,12.48,0,0,0,5.11-6.5H671.8a25.92,25.92,0,0,1-4.84,9.06,26.42,26.42,0,0,1-8.61,6.91,25.39,25.39,0,0,1-11.73,2.64,22.25,22.25,0,0,1-12.25-3.27,18.14,18.14,0,0,1-7.35-9.43q-2.24-6.17-.83-14.86a34.38,34.38,0,0,1,5.51-14.29,27.64,27.64,0,0,1,10-8.9,27.06,27.06,0,0,1,12.63-3,24.69,24.69,0,0,1,10.86,2.24,16,16,0,0,1,7.07,6.49A18.78,18.78,0,0,1,674.44,330.2Z" transform="translate(-59.81 -54.27)" style="fill: none;stroke: #231f20"/>
      <path d="M682.41,311.86h12.4L703,334.42h.56l15.62-22.56h12.4l-24.69,33.86-3.1,18.51h-11l3.09-18.51Z" transform="translate(-59.81 -54.27)" style="fill: none;stroke: #231f20"/>
    </g>
    <g>
      <path d="M69.09,376H82.74l8.62,35.18H92L112.2,376h13.65l-8.69,52.36H106.42l5.67-34.08h-.46L92.51,428.07H85.17l-7.87-34h-.44l-5.73,34.21H60.4Z" transform="translate(-59.81 -54.27)" style="fill: none;stroke: #231f20"/>
      <path d="M135.28,428.32H123.42L150.19,376h14.27l9.35,52.36H162l-1.89-11.94h-18.9Zm10.13-20.58H158.7l-3.12-19.82h-.4Z" transform="translate(-59.81 -54.27)" style="fill: none;stroke: #231f20"/>
      <path d="M229.45,394.29h-11a8.81,8.81,0,0,0-2.41-6.8,9.34,9.34,0,0,0-6.85-2.45,14.81,14.81,0,0,0-10.9,4.66q-4.62,4.67-6,13.11-1.32,8.15,1.49,12.29t8.51,4.15a15.17,15.17,0,0,0,8.36-2.33,12.46,12.46,0,0,0,5.12-6.5h11.12a26.58,26.58,0,0,1-13.45,16A25.31,25.31,0,0,1,201.63,429a22.22,22.22,0,0,1-12.24-3.27,18.21,18.21,0,0,1-7.35-9.44q-2.25-6.16-.84-14.85a34.56,34.56,0,0,1,5.51-14.3,27.63,27.63,0,0,1,10-8.89,27.07,27.07,0,0,1,12.63-3.05,24.61,24.61,0,0,1,10.85,2.24,16,16,0,0,1,7.07,6.49A18.69,18.69,0,0,1,229.45,394.29Z" transform="translate(-59.81 -54.27)" style="fill: none;stroke: #231f20"/>
      <path d="M231.8,428.32,240.5,376h11.07L248,397.56h22.47L274,376h11l-8.7,52.36h-11l3.58-21.63H246.45l-3.58,21.63Z" transform="translate(-59.81 -54.27)" style="fill: none;stroke: #231f20"/>
      <path d="M305.29,376l-8.7,52.36H285.52L294.21,376Z" transform="translate(-59.81 -54.27)" style="fill: none;stroke: #231f20"/>
      <path d="M358.21,376l-8.69,52.36H340l-17.26-33h-.41l-5.5,33H305.72L314.41,376h9.72l17.18,32.93h.44L347.19,376Z" transform="translate(-59.81 -54.27)" style="fill: none;stroke: #231f20"/>
      <path d="M358.65,428.32,367.34,376h35.28l-1.53,9.13H376.88l-2.05,12.47h22.4l-1.54,9.13H373.3l-2.05,12.5h24.32L394,428.32Z" transform="translate(-59.81 -54.27)" style="fill: none;stroke: #231f20"/>
      <path d="M428.47,428.32H416.61L443.38,376h14.26L467,428.32H455.14l-1.89-11.94h-18.9Zm10.13-20.58h13.29l-3.12-19.82h-.41Z" transform="translate(-59.81 -54.27)" style="fill: none;stroke: #231f20"/>
      <path d="M511.44,392.88a9,9,0,0,0-2.62-5.76Q506.6,385,502.34,385a14.89,14.89,0,0,0-7.51,2,17.28,17.28,0,0,0-5.94,5.8,24.16,24.16,0,0,0-3.35,9.26q-1.35,8.21,1.38,12.68t8.95,4.48a15,15,0,0,0,9.34-2.88,12.1,12.1,0,0,0,4.7-7.74H498.68l1.38-8.33H522l-1.12,6.6A26.2,26.2,0,0,1,516,418.76a24.9,24.9,0,0,1-9.3,7.62A27.89,27.89,0,0,1,494.54,429a22.33,22.33,0,0,1-12.39-3.26A17.65,17.65,0,0,1,475,416.5q-2.11-6-.76-14.31a34.73,34.73,0,0,1,5.65-14.52,29.19,29.19,0,0,1,10.33-9.23,27.56,27.56,0,0,1,13-3.2,22.56,22.56,0,0,1,10.36,2.25,16.6,16.6,0,0,1,6.84,6.23,16.34,16.34,0,0,1,2.26,9.16Z" transform="translate(-59.81 -54.27)" style="fill: none;stroke: #231f20"/>
      <path d="M525.6,428.32,534.3,376h35.28l-1.53,9.13H543.83l-2,12.47h22.4l-1.54,9.13h-22.4l-2,12.5h24.31L561,428.32Z" transform="translate(-59.81 -54.27)" style="fill: none;stroke: #231f20"/>
      <path d="M622.2,376l-8.69,52.36h-9.57l-17.25-33h-.41l-5.5,33H569.71L578.4,376h9.72l17.18,32.93h.43L611.18,376Z" transform="translate(-59.81 -54.27)" style="fill: none;stroke: #231f20"/>
      <path d="M674.44,394.29H663.39a8.77,8.77,0,0,0-2.4-6.8,9.37,9.37,0,0,0-6.86-2.45,14.83,14.83,0,0,0-10.9,4.66q-4.62,4.67-6,13.11-1.34,8.15,1.48,12.29c1.88,2.76,4.71,4.15,8.52,4.15a15.17,15.17,0,0,0,8.36-2.33,12.45,12.45,0,0,0,5.11-6.5H671.8a26.49,26.49,0,0,1-13.45,16A25.27,25.27,0,0,1,646.62,429a22.25,22.25,0,0,1-12.25-3.27,18.21,18.21,0,0,1-7.35-9.44q-2.24-6.16-.83-14.85a34.42,34.42,0,0,1,5.51-14.3,27.52,27.52,0,0,1,10-8.89,27.07,27.07,0,0,1,12.63-3.05,24.69,24.69,0,0,1,10.86,2.24,16.08,16.08,0,0,1,7.07,6.49A18.78,18.78,0,0,1,674.44,394.29Z" transform="translate(-59.81 -54.27)" style="fill: none;stroke: #231f20"/>
      <path d="M682.41,376h12.4L703,398.51h.56L719.2,376h12.4l-24.69,33.85-3.1,18.51h-11l3.09-18.51Z" transform="translate(-59.81 -54.27)" style="fill: none;stroke: #231f20"/>
    </g>
    <g>
      <path d="M69.09,440.05H82.74l8.62,35.18H92l20.23-35.18h13.65l-8.69,52.37H106.42l5.67-34.09h-.46L92.51,492.16H85.17l-7.87-34h-.44l-5.73,34.21H60.4Z" transform="translate(-59.81 -54.27)" style="fill: none;stroke: #231f20"/>
      <path d="M135.28,492.42H123.42l26.77-52.37h14.27l9.35,52.37H162l-1.89-11.94h-18.9Zm10.13-20.59H158.7L155.58,452h-.4Z" transform="translate(-59.81 -54.27)" style="fill: none;stroke: #231f20"/>
      <path d="M229.45,458.38h-11a8.82,8.82,0,0,0-2.41-6.8,9.38,9.38,0,0,0-6.85-2.45,14.78,14.78,0,0,0-10.9,4.67q-4.62,4.67-6,13.1-1.32,8.16,1.49,12.3t8.51,4.14a15.17,15.17,0,0,0,8.36-2.33,12.44,12.44,0,0,0,5.12-6.49h11.12a26.66,26.66,0,0,1-13.45,16,25.43,25.43,0,0,1-11.74,2.64,22.22,22.22,0,0,1-12.24-3.27,18.17,18.17,0,0,1-7.35-9.44q-2.25-6.15-.84-14.85a34.46,34.46,0,0,1,5.51-14.29,27.66,27.66,0,0,1,10-8.9,27.06,27.06,0,0,1,12.63-3,24.61,24.61,0,0,1,10.85,2.23,16,16,0,0,1,7.07,6.5A18.66,18.66,0,0,1,229.45,458.38Z" transform="translate(-59.81 -54.27)" style="fill: none;stroke: #231f20"/>
      <path d="M231.8,492.42l8.7-52.37h11.07L248,461.66h22.47L274,440.05h11l-8.7,52.37h-11l3.58-21.64H246.45l-3.58,21.64Z" transform="translate(-59.81 -54.27)" style="fill: none;stroke: #231f20"/>
      <path d="M305.29,440.05l-8.7,52.37H285.52l8.69-52.37Z" transform="translate(-59.81 -54.27)" style="fill: none;stroke: #231f20"/>
      <path d="M358.21,440.05l-8.69,52.37H340l-17.26-33h-.41l-5.5,33H305.72l8.69-52.37h9.72L341.31,473h.44l5.44-32.93Z" transform="translate(-59.81 -54.27)" style="fill: none;stroke: #231f20"/>
      <path d="M358.65,492.42l8.69-52.37h35.28l-1.53,9.13H376.88l-2.05,12.48h22.4l-1.54,9.12H373.3l-2.05,12.51h24.32L394,492.42Z" transform="translate(-59.81 -54.27)" style="fill: none;stroke: #231f20"/>
      <path d="M428.47,492.42H416.61l26.77-52.37h14.26L467,492.42H455.14l-1.89-11.94h-18.9Zm10.13-20.59h13.29L448.77,452h-.41Z" transform="translate(-59.81 -54.27)" style="fill: none;stroke: #231f20"/>
      <path d="M511.44,457a9,9,0,0,0-2.62-5.77q-2.22-2.08-6.48-2.08a14.89,14.89,0,0,0-7.51,2,17.31,17.31,0,0,0-5.94,5.81,24.11,24.11,0,0,0-3.35,9.25q-1.35,8.2,1.38,12.68t8.95,4.48a15,15,0,0,0,9.34-2.88,12.05,12.05,0,0,0,4.7-7.73H498.68l1.38-8.34H522l-1.12,6.6A26.15,26.15,0,0,1,516,482.85a24.9,24.9,0,0,1-9.3,7.62,27.75,27.75,0,0,1-12.18,2.66,22.24,22.24,0,0,1-12.39-3.26,17.61,17.61,0,0,1-7.13-9.28q-2.11-6-.76-14.31a34.84,34.84,0,0,1,5.65-14.52,29.19,29.19,0,0,1,10.33-9.23,27.55,27.55,0,0,1,13-3.19,22.56,22.56,0,0,1,10.36,2.25,16.58,16.58,0,0,1,6.84,6.22,16.37,16.37,0,0,1,2.26,9.17Z" transform="translate(-59.81 -54.27)" style="fill: none;stroke: #231f20"/>
      <path d="M525.6,492.42l8.7-52.37h35.28l-1.53,9.13H543.83l-2,12.48h22.4l-1.54,9.12h-22.4l-2,12.51h24.31L561,492.42Z" transform="translate(-59.81 -54.27)" style="fill: none;stroke: #231f20"/>
      <path d="M622.2,440.05l-8.69,52.37h-9.57l-17.25-33h-.41l-5.5,33H569.71l8.69-52.37h9.72L605.3,473h.43l5.45-32.93Z" transform="translate(-59.81 -54.27)" style="fill: none;stroke: #231f20"/>
      <path d="M674.44,458.38H663.39a8.78,8.78,0,0,0-2.4-6.8,9.41,9.41,0,0,0-6.86-2.45,14.8,14.8,0,0,0-10.9,4.67q-4.62,4.67-6,13.1-1.34,8.16,1.48,12.3c1.88,2.76,4.71,4.14,8.52,4.14a15.17,15.17,0,0,0,8.36-2.33,12.42,12.42,0,0,0,5.11-6.49H671.8a26.09,26.09,0,0,1-4.84,9.06,26.42,26.42,0,0,1-8.61,6.91,25.39,25.39,0,0,1-11.73,2.64,22.25,22.25,0,0,1-12.25-3.27,18.17,18.17,0,0,1-7.35-9.44q-2.24-6.15-.83-14.85a34.32,34.32,0,0,1,5.51-14.29,27.55,27.55,0,0,1,10-8.9,27.06,27.06,0,0,1,12.63-3,24.69,24.69,0,0,1,10.86,2.23,16.1,16.1,0,0,1,7.07,6.5A18.74,18.74,0,0,1,674.44,458.38Z" transform="translate(-59.81 -54.27)" style="fill: none;stroke: #231f20"/>
      <path d="M682.41,440.05h12.4L703,462.6h.56l15.62-22.55h12.4L706.91,473.9l-3.1,18.52h-11l3.09-18.52Z" transform="translate(-59.81 -54.27)" style="fill: none;stroke: #231f20"/>
    </g>
    <g>
      <path d="M69.09,504.15H82.74l8.62,35.18H92l20.23-35.18h13.65l-8.69,52.36H106.42l5.67-34.08h-.46L92.51,556.25H85.17l-7.87-34h-.44l-5.73,34.21H60.4Z" transform="translate(-59.81 -54.27)" style="fill: none;stroke: #231f20"/>
      <path d="M135.28,556.51H123.42l26.77-52.36h14.27l9.35,52.36H162l-1.89-11.94h-18.9Zm10.13-20.58H158.7l-3.12-19.82h-.4Z" transform="translate(-59.81 -54.27)" style="fill: none;stroke: #231f20"/>
      <path d="M229.45,522.48h-11a8.8,8.8,0,0,0-2.41-6.8,9.35,9.35,0,0,0-6.85-2.46,14.82,14.82,0,0,0-10.9,4.67q-4.62,4.67-6,13.1-1.32,8.16,1.49,12.3t8.51,4.14a15.17,15.17,0,0,0,8.36-2.32,12.46,12.46,0,0,0,5.12-6.5h11.12a26.08,26.08,0,0,1-4.85,9.07,26.49,26.49,0,0,1-8.6,6.9,25.43,25.43,0,0,1-11.74,2.65A22.22,22.22,0,0,1,189.39,554a18.14,18.14,0,0,1-7.35-9.43q-2.25-6.16-.84-14.86a34.51,34.51,0,0,1,5.51-14.29,27.75,27.75,0,0,1,10-8.9,27.06,27.06,0,0,1,12.63-3,24.61,24.61,0,0,1,10.85,2.24,15.91,15.91,0,0,1,7.07,6.49A18.69,18.69,0,0,1,229.45,522.48Z" transform="translate(-59.81 -54.27)" style="fill: none;stroke: #231f20"/>
      <path d="M231.8,556.51l8.7-52.36h11.07L248,525.75h22.47l3.58-21.6h11l-8.7,52.36h-11l3.58-21.63H246.45l-3.58,21.63Z" transform="translate(-59.81 -54.27)" style="fill: none;stroke: #231f20"/>
      <path d="M305.29,504.15l-8.7,52.36H285.52l8.69-52.36Z" transform="translate(-59.81 -54.27)" style="fill: none;stroke: #231f20"/>
      <path d="M358.21,504.15l-8.69,52.36H340l-17.26-33h-.41l-5.5,33H305.72l8.69-52.36h9.72l17.18,32.93h.44l5.44-32.93Z" transform="translate(-59.81 -54.27)" style="fill: none;stroke: #231f20"/>
      <path d="M358.65,556.51l8.69-52.36h35.28l-1.53,9.12H376.88l-2.05,12.48h22.4l-1.54,9.13H373.3l-2.05,12.5h24.32L394,556.51Z" transform="translate(-59.81 -54.27)" style="fill: none;stroke: #231f20"/>
      <path d="M428.47,556.51H416.61l26.77-52.36h14.26L467,556.51H455.14l-1.89-11.94h-18.9Zm10.13-20.58h13.29l-3.12-19.82h-.41Z" transform="translate(-59.81 -54.27)" style="fill: none;stroke: #231f20"/>
      <path d="M511.44,521.07a9,9,0,0,0-2.62-5.76q-2.22-2.09-6.48-2.09a14.9,14.9,0,0,0-7.51,2,17.28,17.28,0,0,0-5.94,5.8,24.16,24.16,0,0,0-3.35,9.26q-1.35,8.21,1.38,12.68t8.95,4.47a15.05,15.05,0,0,0,9.34-2.87,12.1,12.1,0,0,0,4.7-7.74H498.68l1.38-8.33H522l-1.12,6.59A26.19,26.19,0,0,1,516,547a25.09,25.09,0,0,1-9.3,7.62,27.89,27.89,0,0,1-12.18,2.66A22.33,22.33,0,0,1,482.15,554a17.63,17.63,0,0,1-7.13-9.29q-2.11-6-.76-14.3a34.73,34.73,0,0,1,5.65-14.52,29.1,29.1,0,0,1,10.33-9.23,27.56,27.56,0,0,1,13-3.2,22.56,22.56,0,0,1,10.36,2.25,16.6,16.6,0,0,1,6.84,6.23,16.34,16.34,0,0,1,2.26,9.16Z" transform="translate(-59.81 -54.27)" style="fill: none;stroke: #231f20"/>
      <path d="M525.6,556.51l8.7-52.36h35.28l-1.53,9.12H543.83l-2,12.48h22.4l-1.54,9.13h-22.4l-2,12.5h24.31L561,556.51Z" transform="translate(-59.81 -54.27)" style="fill: none;stroke: #231f20"/>
      <path d="M622.2,504.15l-8.69,52.36h-9.57l-17.25-33h-.41l-5.5,33H569.71l8.69-52.36h9.72l17.18,32.93h.43l5.45-32.93Z" transform="translate(-59.81 -54.27)" style="fill: none;stroke: #231f20"/>
      <path d="M674.44,522.48H663.39a8.76,8.76,0,0,0-2.4-6.8,9.37,9.37,0,0,0-6.86-2.46,14.84,14.84,0,0,0-10.9,4.67q-4.62,4.67-6,13.1-1.34,8.16,1.48,12.3c1.88,2.76,4.71,4.14,8.52,4.14a15.17,15.17,0,0,0,8.36-2.32,12.45,12.45,0,0,0,5.11-6.5H671.8a26,26,0,0,1-4.84,9.07,26.53,26.53,0,0,1-8.61,6.9,25.39,25.39,0,0,1-11.73,2.65A22.26,22.26,0,0,1,634.37,554a18.14,18.14,0,0,1-7.35-9.43q-2.24-6.16-.83-14.86a34.38,34.38,0,0,1,5.51-14.29,27.64,27.64,0,0,1,10-8.9,27.06,27.06,0,0,1,12.63-3,24.69,24.69,0,0,1,10.86,2.24,16,16,0,0,1,7.07,6.49A18.78,18.78,0,0,1,674.44,522.48Z" transform="translate(-59.81 -54.27)" style="fill: none;stroke: #231f20"/>
      <path d="M682.41,504.15h12.4L703,526.7h.56l15.62-22.55h12.4L706.91,538l-3.1,18.51h-11L695.91,538Z" transform="translate(-59.81 -54.27)" style="fill: none;stroke: #231f20"/>
    </g>
  </g>
</svg>
