<svg id="Layer_1" data-name="Layer 1" xmlns="http://www.w3.org/2000/svg" width="70" height="70" viewBox="0 0 70 70">
  <title>uist-letters</title>
  <path d="M49.21,21.38a7.26,7.26,0,0,0-2.32-6.11q-2.47-2.16-7.38-2.16a14.09,14.09,0,0,0-8.06,2.05,7.78,7.78,0,0,0-3.55,5.21A4.68,4.68,0,0,0,30,25.65a21.6,21.6,0,0,0,6.83,2.77l5.58,1.4a32.49,32.49,0,0,1,9.42,3.67,15.15,15.15,0,0,1,5.89,6.2,14.72,14.72,0,0,1,1,9.21,21,21,0,0,1-9,14.19q-7.5,5.26-19.42,5.27-11.76,0-17.94-5.4T7.68,47.06H21c-.34,3.26.53,5.7,2.62,7.34s4.91,2.46,8.48,2.46a16,16,0,0,0,8.76-2.22,8.26,8.26,0,0,0,4-5.77,4.72,4.72,0,0,0-2-5.07,23.16,23.16,0,0,0-7.69-3L28.38,39q-7.83-2-11.87-6.26t-2.9-11.43A20.35,20.35,0,0,1,18.54,11a26.39,26.39,0,0,1,9.89-6.87A34,34,0,0,1,41.5,1.64,27.25,27.25,0,0,1,53.71,4.12,15.82,15.82,0,0,1,61,11.05a16.69,16.69,0,0,1,1.39,10.33Z" style="fill: none;stroke: #231f20"/>
</svg>
