<svg id="Layer_1" data-name="Layer 1" xmlns="http://www.w3.org/2000/svg" width="70" height="70" viewBox="0 0 70 70">
  <title>uist-letters</title>
  <path d="M52,2.08H65.65L58.55,45A25.19,25.19,0,0,1,53,57.48a27.68,27.68,0,0,1-10.84,7.78,37.63,37.63,0,0,1-14.34,2.66,31.39,31.39,0,0,1-13.49-2.66,17.1,17.1,0,0,1-8.23-7.78Q3.52,52.35,4.73,45l7.1-42.92H25.55l-7,42.45q-.86,5.19,2.36,8.17c2.14,2,5.12,3,8.92,3a17.06,17.06,0,0,0,10-3A11.89,11.89,0,0,0,45,44.53Z" transform="scale(2)" style="fill: none;stroke: #231f20"/>
</svg>
